<?xml version="1.0" standalone="no"?>
<!DOCTYPE svg PUBLIC "-//W3C//DTD SVG 20010904//EN"
 "http://www.w3.org/TR/2001/REC-SVG-20010904/DTD/svg10.dtd">
<svg version="1.0" xmlns="http://www.w3.org/2000/svg"
 width="400.000000pt" height="300.000000pt" viewBox="0 0 400.000000 300.000000"
 preserveAspectRatio="xMidYMid meet">

<g transform="translate(0.000000,300.000000) scale(0.100000,-0.100000)"
fill="#000000" stroke="none">
<path d="M3060 2985 c0 -12 4 -14 19 -5 23 12 51 3 51 -16 0 -8 5 -14 11 -14
6 0 9 10 7 23 -2 18 -10 23 -45 25 -34 2 -43 0 -43 -13z"/>
<path d="M3420 2991 c0 -5 7 -14 15 -21 17 -14 14 -84 -4 -118 -11 -20 -9 -22
20 -22 27 0 30 -2 19 -15 -9 -10 -9 -15 -1 -15 7 0 11 -21 11 -55 0 -52 -1
-54 -19 -43 -15 9 -23 9 -34 0 -15 -12 -51 -6 -42 7 5 9 -21 7 -52 -3 -28 -9
-29 -22 -2 -65 12 -19 22 -53 24 -75 3 -35 6 -41 25 -38 29 3 90 -27 90 -45 0
-25 29 -71 47 -75 10 -2 22 5 28 17 13 25 33 29 83 16 30 -9 43 -19 58 -48 10
-21 20 -40 21 -41 4 -9 43 11 43 22 0 7 11 26 25 42 14 16 31 41 38 57 6 15
15 27 20 27 4 0 17 9 29 19 11 11 27 17 35 14 8 -3 34 -6 57 -7 l41 -1 3 238
2 237 -290 0 c-160 0 -290 -4 -290 -9z"/>
<path d="M2532 2949 c2 -7 14 -13 26 -14 29 -2 22 19 -7 23 -15 3 -22 -1 -19
-9z"/>
<path d="M3285 2886 c-16 -14 -38 -32 -48 -41 -10 -9 -26 -13 -36 -10 -14 4
-20 -1 -25 -21 -9 -33 11 -50 35 -28 8 7 18 14 21 14 13 0 98 92 93 101 -8 12
-5 13 -40 -15z m-75 -80 c0 -11 -19 -15 -25 -6 -3 5 1 10 9 10 9 0 16 -2 16
-4z"/>
<path d="M2942 2819 c-45 -9 -59 -24 -42 -44 7 -9 20 -13 27 -10 8 3 48 -11
89 -30 45 -22 88 -35 113 -35 30 0 44 -6 55 -22 14 -20 17 -21 32 -7 14 14 13
17 -10 33 -14 9 -26 23 -26 30 0 8 -8 16 -17 18 -11 2 -18 12 -18 27 0 29 -18
38 -36 19 -14 -16 -66 -12 -89 7 -23 19 -42 22 -78 14z"/>
<path d="M2870 2809 c0 -5 5 -7 10 -4 6 3 10 8 10 11 0 2 -4 4 -10 4 -5 0 -10
-5 -10 -11z"/>
<path d="M2794 2786 c-8 -22 3 -33 18 -18 9 9 9 15 0 24 -9 9 -13 7 -18 -6z"/>
<path d="M3235 2766 c-26 -25 -27 -26 -6 -26 11 0 21 6 21 14 0 8 6 16 13 19
6 2 9 7 6 11 -4 4 -19 -4 -34 -18z"/>
<path d="M2562 2691 c13 -21 38 -17 38 5 0 8 -10 14 -25 14 -22 0 -24 -2 -13
-19z"/>
<path d="M1173 1941 c-3 -11 -13 -21 -24 -24 -11 -3 -19 -14 -19 -26 0 -21
-26 -41 -54 -41 -12 0 -13 6 -5 32 10 37 -2 56 -21 33 -7 -8 -22 -15 -34 -15
-16 0 -30 -14 -50 -52 -34 -63 -40 -68 -90 -68 -49 0 -150 -72 -141 -100 3
-11 -1 -20 -10 -23 -28 -11 -6 -37 26 -30 16 3 35 0 43 -6 20 -16 86 16 86 41
0 11 11 29 25 42 14 13 25 28 25 34 0 6 18 16 39 23 32 10 44 9 71 -5 26 -12
41 -14 69 -6 20 5 53 8 73 5 42 -5 54 6 36 34 -10 17 -9 23 6 40 14 15 16 28
10 68 -4 26 -12 51 -18 55 -20 13 -38 9 -43 -11z"/>
<path d="M1630 1814 c-23 -11 -60 -15 -107 -15 -64 2 -73 0 -83 -19 -8 -15
-18 -20 -31 -17 -11 3 -19 0 -19 -8 0 -7 11 -15 25 -17 14 -3 25 -1 25 3 0 5
9 9 21 9 11 0 17 4 14 10 -4 6 1 7 11 3 13 -5 16 -3 11 10 -8 20 -6 20 45 5
22 -6 44 -20 49 -30 14 -25 27 -22 35 7 9 37 19 31 43 -26 18 -44 23 -50 36
-39 8 7 15 19 15 28 0 8 11 30 26 49 l25 33 -24 0 c-13 0 -32 7 -43 15 -24 18
-31 18 -74 -1z"/>
<path d="M455 1550 c-11 -5 -37 -9 -57 -9 -21 -1 -38 -5 -38 -10 0 -16 -44
-21 -53 -6 -12 23 -80 19 -102 -5 -10 -12 -24 -19 -31 -16 -13 5 -97 -17 -90
-24 2 -3 -16 -5 -40 -4 l-44 1 0 -739 0 -738 610 0 c336 0 610 2 610 5 0 17
-60 28 -169 31 -162 5 -296 23 -282 37 33 33 149 52 213 36 17 -5 29 -3 32 4
3 8 8 7 16 -3 9 -13 11 -12 8 5 -2 11 -12 21 -23 23 -11 2 -26 9 -34 16 -8 6
-22 10 -33 8 -10 -2 -18 2 -18 7 0 6 11 11 24 11 14 0 27 4 30 9 13 21 226 32
304 15 28 -5 34 -3 38 14 5 16 20 22 78 31 40 7 91 12 112 12 21 0 71 3 111 5
46 4 79 1 94 -6 19 -10 24 -10 34 4 7 9 20 16 29 16 9 0 28 7 41 16 14 9 31
14 39 11 20 -8 62 43 45 54 -20 12 8 39 42 39 32 0 48 -18 28 -31 -10 -6 -6
-9 14 -9 24 0 27 3 21 24 -7 29 3 49 19 39 6 -4 32 -8 57 -9 67 -3 107 -14
126 -35 16 -18 16 -20 1 -37 -17 -19 -23 -43 -9 -41 34 6 72 -3 72 -16 0 -8
-4 -15 -8 -15 -5 0 -9 -13 -9 -29 0 -22 4 -27 18 -24 10 3 20 11 23 19 8 20
23 17 29 -6 4 -16 11 -19 30 -15 19 5 26 2 29 -11 2 -10 14 -18 35 -20 33 -4
103 -40 103 -54 0 -14 -23 -16 -145 -13 -156 3 -171 5 -192 23 -32 27 -193 10
-237 -25 l-30 -24 30 -7 c16 -3 38 -12 49 -19 25 -15 84 -24 91 -13 11 17 33
7 46 -19 l13 -28 923 -3 922 -2 0 173 0 174 -52 -5 c-29 -2 -60 -11 -69 -19
-21 -18 -81 -22 -137 -10 -29 6 -58 5 -89 -3 -35 -8 -48 -8 -53 0 -5 9 -13 8
-28 -1 -18 -11 -24 -11 -39 3 -30 27 -112 67 -151 74 -21 4 -42 10 -47 15 -6
4 -33 9 -60 11 -27 2 -47 6 -45 9 8 11 -32 49 -51 49 -10 0 -21 5 -24 11 -4 6
-23 9 -43 7 -31 -3 -38 1 -55 31 -15 25 -18 38 -10 50 17 28 3 70 -32 98 -39
31 -50 34 -132 36 -34 1 -65 5 -69 10 -4 4 -8 43 -9 87 -1 44 -4 82 -7 85 -16
17 -275 39 -283 24 -6 -8 -63 -5 -72 5 -13 13 -23 5 -56 -46 -36 -57 -67 -88
-67 -69 0 18 -13 13 -45 -16 -16 -15 -37 -26 -47 -25 -13 2 -16 -1 -12 -13 9
-22 -14 -45 -45 -45 -15 0 -44 -9 -66 -20 -51 -26 -65 -25 -65 4 0 19 -4 23
-19 19 -12 -3 -20 2 -24 16 -6 24 2 63 12 57 3 -2 7 7 8 22 0 14 8 29 17 34
24 14 20 55 -6 64 -13 4 -24 2 -26 -5 -2 -6 -12 -11 -23 -11 -10 0 -19 -4 -19
-9 0 -14 -92 -24 -205 -23 -125 2 -139 -2 -124 -30 10 -18 8 -24 -11 -38 -13
-10 -20 -22 -16 -28 4 -6 -18 0 -48 13 -30 13 -99 31 -153 40 -130 21 -257 53
-262 66 -1 6 -14 22 -27 36 -13 14 -24 30 -24 34 0 10 81 89 92 89 4 0 8 8 8
19 0 11 -12 23 -29 31 -25 10 -35 9 -62 -4 -26 -13 -35 -14 -47 -3 -13 10 -14
9 -7 -2 4 -8 -11 5 -33 27 -23 23 -47 42 -53 42 -10 0 -137 52 -234 95 -27 13
-67 30 -87 38 -22 9 -38 23 -38 32 0 9 -13 21 -30 26 -34 12 -37 21 -15 39 12
10 14 24 9 59 -4 25 -10 48 -14 51 -4 3 -13 22 -19 43 -13 39 -32 46 -76 27z
m-265 -110 c23 -23 25 -37 8 -42 -7 -3 -11 -31 -12 -73 -1 -53 -5 -74 -19 -88
-21 -21 -47 -16 -47 9 0 8 -8 23 -18 32 -10 10 -24 29 -30 45 -10 23 -9 29 8
39 13 8 16 16 9 24 -12 14 38 73 64 74 9 0 26 -9 37 -20z m233 -41 c18 -17 21
-79 3 -79 -5 0 -22 14 -38 30 -15 17 -33 30 -39 30 -5 0 -7 5 -4 10 3 6 1 10
-4 10 -6 0 -11 4 -11 9 0 14 74 7 93 -10z m633 -699 c8 0 14 -7 14 -15 0 -28
41 -15 53 18 3 9 18 18 32 19 14 0 31 1 38 2 7 1 11 -9 9 -26 -2 -19 3 -28 18
-33 26 -8 25 -25 -1 -54 -23 -24 -43 -17 -54 20 -7 22 -25 26 -25 5 0 -28 -48
-66 -84 -66 -56 0 -67 46 -33 135 9 22 13 25 15 13 2 -10 10 -18 18 -18z m300
-56 c-3 -9 -6 -20 -6 -25 0 -5 -4 -9 -10 -9 -11 0 -14 33 -3 43 12 13 25 7 19
-9z m-66 -18 c0 -3 -4 -8 -10 -11 -5 -3 -10 -1 -10 4 0 6 5 11 10 11 6 0 10
-2 10 -4z m930 -42 c0 -24 -16 -35 -75 -50 -34 -8 -33 15 1 50 15 14 23 26 18
27 -5 0 0 4 11 8 26 11 45 -5 45 -35z m-1400 -354 c0 -5 -4 -10 -10 -10 -5 0
-10 5 -10 10 0 6 5 10 10 10 6 0 10 -4 10 -10z m94 -47 c3 -8 -2 -13 -14 -13
-11 0 -20 5 -20 11 0 5 -4 8 -8 5 -4 -2 -14 -1 -22 4 -11 7 -4 9 22 8 21 -1
39 -7 42 -15z"/>
<path d="M570 1530 c0 -5 5 -10 10 -10 6 0 10 5 10 10 0 6 -4 10 -10 10 -5 0
-10 -4 -10 -10z"/>
<path d="M2040 776 c0 -9 5 -16 10 -16 6 0 10 4 10 9 0 6 -4 13 -10 16 -5 3
-10 -1 -10 -9z"/>
<path d="M2147 753 c-11 -10 -8 -20 7 -26 10 -4 12 0 9 14 -6 21 -7 22 -16 12z"/>
</g>
</svg>
