<?xml version="1.0" standalone="no"?>
<!DOCTYPE svg PUBLIC "-//W3C//DTD SVG 20010904//EN"
 "http://www.w3.org/TR/2001/REC-SVG-20010904/DTD/svg10.dtd">
<svg version="1.0" xmlns="http://www.w3.org/2000/svg"
 width="196.000000pt" height="196.000000pt" viewBox="0 0 196.000000 196.000000"
 preserveAspectRatio="xMidYMid meet">
<metadata>
Created by potrace 1.14, written by Peter Selinger 2001-2017
</metadata>
<g transform="translate(0.000000,196.000000) scale(0.100000,-0.100000)"
fill="#000000" stroke="none">
<path d="M355 1946 c-59 -19 -96 -40 -131 -78 -47 -49 -60 -79 -79 -178 -3
-14 -5 -140 -6 -280 0 -219 -3 -258 -17 -283 -17 -29 -47 -41 -94 -40 l-28 0
0 -108 0 -109 41 0 c31 0 47 -6 69 -29 l29 -28 0 -261 c1 -144 5 -283 11 -309
22 -104 78 -175 169 -217 38 -17 71 -21 199 -24 83 -2 152 0 153 4 1 13 1 153
0 200 l-1 42 -79 -1 c-94 0 -137 22 -145 76 -3 18 -7 147 -8 287 -3 287 -6
301 -81 349 -33 22 -36 26 -20 34 40 21 74 64 88 109 10 35 14 111 15 284 1
317 5 327 155 330 l79 1 0 119 -1 119 -139 1 c-86 1 -154 -3 -179 -10z"/>
<path d="M1010 980 l0 -736 168 1 167 0 0 280 c-1 154 3 282 6 285 4 3 114 5
243 5 l236 -1 1 73 c0 40 1 89 1 108 0 78 23 70 -229 70 -126 -1 -235 1 -243
3 -13 3 -15 31 -14 186 1 101 4 188 7 192 3 5 141 9 306 8 l302 0 -3 130 -3
131 -472 0 -473 0 0 -735z"/>
</g>
</svg>
